<svg width="28" height="28" viewBox="0 0 28 28" fill="none" xmlns="http://www.w3.org/2000/svg">
<circle cx="14" cy="14" r="14" fill="#EDF0F4"/>
<g clip-path="url(#clip0_6398_469)">
<path d="M13.9998 5.83333C13.3555 5.83333 12.8332 6.35566 12.8332 6.99999V11.6667C12.8332 11.9761 12.9561 12.2728 13.1749 12.4916C13.3937 12.7104 13.6904 12.8333 13.9998 12.8333C14.3093 12.8333 14.606 12.7104 14.8248 12.4916C15.0436 12.2728 15.1665 11.9761 15.1665 11.6667V7C15.1665 6.35566 14.6442 5.83333 13.9998 5.83333ZM11.6665 8.32047C9.65692 8.8408 8.1665 10.6639 8.1665 12.8333V15.1667C8.1665 17.3361 9.65692 19.1592 11.6665 19.6795V17.1753C10.9723 16.7705 10.4998 16.0265 10.4998 15.1667V12.8333C10.4998 11.9735 10.9723 11.2295 11.6665 10.8247V8.32047ZM16.3332 8.32047V10.8247C17.0273 11.2295 17.4998 11.9735 17.4998 12.8333V15.1667C17.4998 16.0265 17.0273 16.7705 16.3332 17.1753V19.6795C18.3428 19.1592 19.8332 17.3367 19.8332 15.1667V12.8333C19.8332 10.6639 18.3428 8.8408 16.3332 8.32047ZM13.9998 15.1667C13.6904 15.1667 13.3937 15.2896 13.1749 15.5084C12.9561 15.7272 12.8332 16.0239 12.8332 16.3333V21C12.8332 21.6443 13.3555 22.1667 13.9998 22.1667C14.6442 22.1667 15.1665 21.6443 15.1665 21V16.3333C15.1665 16.0239 15.0436 15.7272 14.8248 15.5084C14.606 15.2896 14.3093 15.1667 13.9998 15.1667Z" fill="#998728"/>
</g>
<defs>
<clipPath id="clip0_6398_469">
<rect width="17.5" height="17.5" fill="white" transform="translate(5.25 5.25)"/>
</clipPath>
</defs>
</svg>
