<svg width="16" height="16" viewBox="0 0 16 16" fill="none" xmlns="http://www.w3.org/2000/svg">
<path d="M0 3.09633C0 2.12268 0.789304 1.33337 1.76296 1.33337L9.33333 1.33337C13.0152 1.33337 16 4.34408 16 8.02598C16 11.6793 13.0384 14.6667 9.38501 14.6667H5.63124C4.7817 14.6667 4.09302 13.978 4.09302 13.1285C4.09302 12.2825 4.77617 11.5953 5.62213 11.5903L9.66909 11.5663C10.1661 11.5634 10.5674 11.1597 10.5674 10.6627C10.5674 10.1636 10.1628 9.75895 9.66374 9.75895H3.01767C2.16828 9.75895 1.47971 9.07038 1.47971 8.22099C1.47971 7.37496 2.16305 6.68779 3.00907 6.68305L7.45347 6.6582C7.94106 6.65547 8.33488 6.25944 8.33488 5.77184C8.33488 5.28391 7.94052 4.88773 7.45259 4.88548L1.75485 4.85927C0.78437 4.85481 0 4.06682 0 3.09633Z" fill="url(#paint0_linear_6398_549)"/>
<defs>
<linearGradient id="paint0_linear_6398_549" x1="8" y1="1.33337" x2="8" y2="14.6667" gradientUnits="userSpaceOnUse">
<stop stop-color="#FFD601"/>
<stop offset="1" stop-color="#FFB901"/>
</linearGradient>
</defs>
</svg>
