<svg width="28" height="28" viewBox="0 0 28 28" fill="none" xmlns="http://www.w3.org/2000/svg">
<circle cx="14" cy="14" r="14" fill="#172852"/>
<path d="M11.277 6.2566C12.9164 5.6434 14.7616 5.642 16.4318 6.146C18.606 6.8208 20.4414 8.4616 21.4004 10.521C21.665 11.1076 21.9184 11.7194 21.9436 12.3718C20.7214 11.6634 19.3816 11.2042 18.039 10.7856C15.8914 10.0114 13.643 9.4738 11.6102 8.4098C11.137 8.127 10.5336 7.8372 10.4048 7.2478C10.353 6.7382 10.892 6.454 11.277 6.2566" fill="#FFD83D"/>
<path d="M6.32824 11.2126C6.80284 9.9246 7.58124 8.729 8.63824 7.8428C8.90704 10.0534 9.84784 12.1898 11.4018 13.797C13.2652 15.7332 15.9196 16.9218 18.6202 16.877C19.6926 16.9106 20.7412 16.6628 21.787 16.4626C20.758 20.181 16.6826 22.6492 12.9068 22.0556C10.6276 21.7644 8.52344 20.4148 7.25364 18.5094C5.82144 16.4038 5.46024 13.608 6.32824 11.2126Z" fill="#FFD83D"/>
<path d="M18.0391 10.7856C19.3817 11.2042 20.7215 11.6634 21.9437 12.3718L22.0263 12.4152C22.1397 13.2678 22.2223 14.1372 22.0711 14.9912C21.4565 14.7308 20.9581 14.273 20.4373 13.8684C19.4349 13.034 18.4115 12.0792 18.0391 10.7856" fill="#FF6F03"/>
</svg>
